<svg width="512" height="512" viewBox="0 0 512 512" fill="none" xmlns="http://www.w3.org/2000/svg" xmlns:xlink="http://www.w3.org/1999/xlink" class=""><rect id="r9" width="512" height="512" x="0" y="0" rx="128" fill="url(#ra)" stroke="#FFFFFF" stroke-width="0" stroke-opacity="100%" paint-order="stroke"></rect><clipPath id="clip"><use xlink:href="#r9"></use></clipPath><defs><radialGradient id="ra" cx="50%" cy="50%" r="100%" fx="50%" fy="0%" gradientUnits="objectBoundingBox"><stop stop-color="#695BF8"></stop><stop offset="1" stop-color="#131308"></stop></radialGradient><radialGradient id="rb" cx="0" cy="0" r="1" gradientUnits="userSpaceOnUse" gradientTransform="translate(256) rotate(90) scale(512)"><stop stop-color="white"></stop><stop offset="1" stop-color="white" stop-opacity="0"></stop></radialGradient></defs><svg xmlns="http://www.w3.org/2000/svg" fill="none" viewBox="0 0 16 16" width="352" height="352" x="80" y="80" alignment-baseline="middle" style="color: rgb(255, 255, 255);"><path stroke="currentColor" stroke-width="1.286" d="M6 10v2.175a2.175 2.175 0 0 1-4.35 0c0-1.201.974-2.175 2.175-2.175H6Zm0 0V6m0 4h4M6 6V3.825a2.175 2.175 0 1 0-4.35 0C1.65 5.026 2.624 6 3.825 6H6Zm0 0h4m0 0V3.825a2.175 2.175 0 0 1 4.35 0A2.175 2.175 0 0 1 12.175 6H10Zm0 0v4m0 0h2.175a2.175 2.175 0 0 1 0 4.35A2.175 2.175 0 0 1 10 12.175V10Z"></path></svg></svg>